<svg xmlns="http://www.w3.org/2000/svg" viewBox="0 0 80 80"><defs><style>.cls-1{fill:#7dcece;}.cls-2{fill:#fbcccc;}.cls-3{fill:#fff;}.cls-4{fill:#272361;}.cls-5{fill:none;}.cls-5,.cls-6{stroke:#272361;stroke-linecap:round;stroke-linejoin:round;}.cls-6{fill:#f9b6b8;}</style></defs><title>Asset 2</title><g id="Layer_2" data-name="Layer 2"><g id="Layer_1-2" data-name="Layer 1"><rect class="cls-1" width="80" height="80"/><circle class="cls-2" cx="35.02" cy="35.6" r="31.66"/><ellipse class="cls-3" cx="19.99" cy="24.47" rx="3.61" ry="6.41" transform="translate(-5.98 6.48) rotate(-16.05)"/><ellipse class="cls-3" cx="40.87" cy="16.44" rx="3.64" ry="6.41" transform="translate(-2.95 11.94) rotate(-16.05)"/><circle class="cls-4" cx="19.99" cy="24.47" r="2.54"/><polyline class="cls-5" points="43.89 10.35 36.24 19.03 47.15 17.5"/><path class="cls-6" d="M35.92,27.33a5.83,5.83,0,0,0-6.25,2.32,7.45,7.45,0,0,0-.93,5.85c.89,3.78,3.53,7.81,7.22,9.5,4.22,1.92,9.22,0,9.63-5C45.94,35.69,41,28.63,35.92,27.33Z"/></g></g></svg>